<?xml version="1.0" encoding="utf-8"?>
<!-- Svg Vector Icons : http://www.onlinewebfonts.com/icon -->
<!DOCTYPE svg PUBLIC "-//W3C//DTD SVG 1.1//EN" "http://www.w3.org/Graphics/SVG/1.1/DTD/svg11.dtd">
<svg version="1.1" xmlns="http://www.w3.org/2000/svg" xmlns:xlink="http://www.w3.org/1999/xlink" x="0px" y="0px" viewBox="0 0 256 256" enable-background="new 0 0 256 256" xml:space="preserve">
<metadata> Svg Vector Icons : http://www.onlinewebfonts.com/icon </metadata>
<g><g><g><path fill="#000000" d="M38.8,17.9c-12.1,4.3-13.1,20.8-1.7,26.5c3.9,1.9,8.8,1.9,12.7,0c5.2-2.6,7.9-6.9,7.9-12.9c0-4.1-1-6.8-3.6-9.8C50.7,17.8,43.9,16.1,38.8,17.9z"/><path fill="#000000" d="M38.8,56.5c-3.4,1.2-5.8,3.2-7.6,6.3c-0.8,1.4-5.2,8.9-9.8,16.6c-11.6,19.5-10.9,18.1-10.9,23c0,3.6,0.1,4.4,1.3,6.3c2.4,4.1,5.3,5.9,11.3,7c2.1,0.4,4.3,0.8,4.9,1l1.1,0.2V153v36.2l-9.5,18.4C10,226,10,226,10,229.2c0,2.5,0.2,3.5,1.2,5c3.2,5.2,10.7,6.2,14.8,1.9c1.1-1.2,5.2-8.6,11.9-21.6l10.2-19.8l0.2-15.3l0.2-15.3l4.9,11.9l4.9,11.9l-1.2,18.6c-0.7,10.2-1.2,20.3-1.1,22.5c0.1,3.5,0.3,4.1,1.6,5.8c1.8,2.3,5.1,4,7.7,4c4.4,0,8.4-3.4,9.4-7.8c0.3-1.4,1.1-12.4,1.8-24.5l1.3-22l-9.9-24l-9.9-24v-7.1c0-4.5,0.2-7.2,0.5-7.2s5.3,0.9,11.2,1.9c5.9,1.1,11.2,1.9,11.9,1.9c0.6,0,1.9-0.4,3-1c1.6-0.8,2.8-1,8.4-1h6.5l0.5,1.8c0.2,1,4.8,19.7,10.2,41.6c5.4,21.9,9.8,40.2,9.9,40.6c0.2,0.8,3.3,0.9,56.4,0.9h56.2l1.2-1.3c1.6-1.7,1.6-4.2,0-5.7l-1.2-1.2h-52.8c-49.9,0-52.8,0-53-0.9c-0.4-1.5-20.5-83.9-20.5-84.2c0-0.1-4.2-0.2-9.4-0.2c-8.6,0-9.4,0-9.8-0.9c-1.1-1.9-3.1-2.6-14.9-4.7c-6.5-1.2-12.3-2.2-12.9-2.4l-1.1-0.2l-0.1-20.4c-0.1-19.5-0.2-20.4-1.2-22.6C53.5,57.4,45.7,54,38.8,56.5z M29,98.5c0,3.2,0,3.4-1.1,3.3c-2.7,0-2.8-0.5-1-3.7c1-1.7,1.8-3,1.9-3C29,95.1,29,96.6,29,98.5z"/><path fill="#000000" d="M126.7,115.7c-1.9,0.5-4.1,2.6-4.6,4.4c-0.4,1.7,0.2,5.2,6.3,32.4c3.7,16.8,7,31.2,7.3,32.2c0.7,2.2,3.6,5.3,5.9,6.4c1.8,0.8,4.3,0.9,42.2,0.9h40.4l2.6-1.4c4.8-2.5,4.5-1.4,12.3-36.5c3.8-17.2,6.9-31.8,6.9-32.5c0-1.6-1.5-4.1-3.2-5.2c-1.3-0.8-4.2-0.9-58.2-0.9C153.2,115.5,127.2,115.6,126.7,115.7z M145.6,129.4c0.6,2.8,1.2,5.5,1.4,6.2l0.3,1.1l-6.9-0.1l-6.8-0.1l-1.3-5.8c-0.7-3.2-1.3-5.9-1.4-6.2c0-0.2,3.1-0.3,6.8-0.2l6.8,0.1L145.6,129.4z M179.5,130.3v6.3h-11.8h-11.8l-0.2-1.1c-0.1-0.6-0.8-3.4-1.4-6.3l-1.1-5.2h13.2h13.2L179.5,130.3L179.5,130.3z M214.3,125.6c-0.2,0.9-0.8,3.7-1.3,6.2l-1,4.6l-12,0.1l-11.9,0.1v-6.3v-6.3h13.3h13.3L214.3,125.6z M236.8,124.4c0,0.2-0.6,3-1.3,6.3l-1.3,5.9h-6.9h-6.8l0.4-1.6c0.2-0.8,0.9-3.7,1.4-6.3l1.1-4.7h6.7C233.8,124.1,236.8,124.2,236.8,124.4z M150,149.7c0.6,2.4,1.2,5.2,1.3,6.3l0.3,1.9h-6.8h-6.7l-1.3-5.9c-0.7-3.2-1.3-6.1-1.3-6.3c0-0.2,3-0.3,6.7-0.3h6.7L150,149.7z M179.5,151.6v6.3l-9.5-0.1l-9.5-0.1l-1.4-5.8c-0.7-3.2-1.3-5.9-1.4-6.2c0-0.2,4.9-0.3,10.8-0.3h10.8V151.6z M209.8,145.6c0,0.2-0.6,3-1.3,6.3l-1.3,5.9h-9.6h-9.5v-6.3v-6.3H199C205,145.3,209.8,145.4,209.8,145.6z M231.8,147.2c-0.1,1.1-0.7,3.9-1.3,6.3l-1,4.4h-6.7c-3.7,0-6.7-0.1-6.7-0.3c0-0.2,0.6-3,1.3-6.3l1.3-5.9h6.7h6.8L231.8,147.2z M155.3,173.8c0.9,4,1.7,7.9,1.8,8.4c0.2,1.1,0.2,1.1-6,1.1c-5.4,0-6.4-0.1-7-0.9c-0.6-0.7-3.8-13.6-3.8-15.4c0-0.4,1.6-0.6,6.7-0.6h6.7L155.3,173.8z M179.5,174.9v8.4h-6.7h-6.7l-1.8-8.1c-1-4.4-1.7-8.2-1.7-8.4c0-0.2,3.8-0.3,8.4-0.3h8.4V174.9z M205.3,167.1c-0.1,0.3-0.9,3.8-1.7,7.6s-1.6,7.4-1.7,7.8c-0.2,0.8-1,0.9-7,0.9h-6.7v-8.4v-8.4h8.7C203.5,166.5,205.4,166.6,205.3,167.1z M227.5,167.1c-0.1,0.3-0.9,3.9-1.8,7.9c-0.9,4-1.8,7.5-2,7.8c-0.4,0.4-2.4,0.6-7,0.6c-5.9,0-6.5,0-6.2-0.9c0.1-0.4,0.9-4,1.7-7.8c0.8-3.9,1.6-7.3,1.7-7.6c0.1-0.4,2-0.6,7-0.6C226.2,166.5,227.7,166.6,227.5,167.1z"/><path fill="#000000" d="M139.2,218.3c-4.1,1.8-6.5,5.4-6.5,9.9c0,7.3,6.5,12.1,13.7,10.1c2.8-0.8,6.2-4.4,7-7.6c1.5-6.6-3.6-13.1-10.4-13C141.8,217.7,140,217.9,139.2,218.3z"/><path fill="#000000" d="M203.1,218.2c-2.3,0.7-5.4,4-6.2,6.4c-1.4,4.9,0.3,10,4.4,12.4c4.6,2.8,9.6,2.1,13.3-1.9C222.1,227.1,213.8,214.9,203.1,218.2z"/></g></g></g>
</svg>