<?xml version="1.0" encoding="utf-8"?>
<!-- Svg Vector Icons : http://www.onlinewebfonts.com/icon -->
<!DOCTYPE svg PUBLIC "-//W3C//DTD SVG 1.1//EN" "http://www.w3.org/Graphics/SVG/1.1/DTD/svg11.dtd">
<svg version="1.1" xmlns="http://www.w3.org/2000/svg" xmlns:xlink="http://www.w3.org/1999/xlink" x="0px" y="0px" viewBox="0 0 256 256" enable-background="new 0 0 256 256" xml:space="preserve">
<metadata> Svg Vector Icons : http://www.onlinewebfonts.com/icon </metadata>
<g><g><g><path fill="#000000" d="M156.9,15.6c-1.1,0.7-2.3,1.9-2.5,2.6c-1,3.5-13.2,51.9-13.2,52.6c0,0.6,6.7,0.8,26.9,0.8H195l0.7-2.6c3.2-12,9.5-38.1,9.5-39.2c0-0.7-0.8-2.2-1.8-3.4c-1.8-1.8-3.6-2.4-22.2-7.1c-11.2-2.8-20.7-5-21.2-5C159.4,14.3,158.1,14.9,156.9,15.6z M177.4,34.9c10.8,4.6,10.8,19.7,0,24.2c-6.5,2.7-13.8-0.3-16.8-6.7C155.8,41.7,166.7,30.4,177.4,34.9z"/><path fill="#000000" d="M78.3,25.4c-3.4,1.8-3.7,2.7-3.7,11.8v8.4l11.8,12.9l11.8,13h14.4h14.5L126.9,50l-0.2-21.6l-2.2-2c-2.2-2-2.2-2-10.6-2h-8.4v6.2c0,3.4-0.3,5.9-0.5,5.4c-0.5-0.6-0.9-0.5-1.8,0.5c-1.1,1.2-1.3,1.3-2.4,0.3s-1.2-0.9-2,0c-0.8,0.9-1,0.9-2.4-0.3c-1.3-1.2-1.5-1.2-2.8-0.3c-0.7,0.5-1.5,1-1.8,1c-0.3,0-0.5-2.9-0.5-6.4v-6.4h-5.5C82.2,24.4,79.6,24.8,78.3,25.4z"/><path fill="#000000" d="M212.8,29.6c-0.3,1.1-3.1,11.6-6.3,23.4l-5.9,21.5l-93.2,0.3c-86,0.3-93.3,0.4-94.9,1.5c-0.9,0.6-1.9,1.9-2.2,2.8c-0.3,1,1.8,10.8,5.6,26.5c10.2,41.8,15.5,63.1,16.3,64.9c0.4,1,1.5,2.2,2.4,2.6c0.9,0.4,7.2,1.2,13.9,1.8c6.7,0.6,27.5,2.4,46.2,4c18.7,1.7,44.9,3.9,58.2,5c13.3,1.1,24.2,2.2,24.3,2.2c0,0.1,3.2,5.6,6.9,12.3l6.9,12.1l-88.4,0.3c-94.9,0.3-90.7,0.2-92,3.8c-1.1,2.8-0.8,4.3,1.3,6.4l2,2H26c6.7,0,12.2,0.1,12.2,0.1c0,0.1-0.7,1.7-1.7,3.5c-2,3.8-2.1,6.4-0.6,9.6c2,4.1,8,6.5,12.7,5c3.2-1,6.2-4.6,6.8-8c0.4-2.5-0.1-4.2-2.9-9.7c-0.1-0.3,25.4-0.5,56.7-0.5c31.3,0,56.9,0.1,56.9,0.3c0,0.1-0.7,1.4-1.7,2.8c-2.2,3.2-2.3,7.7-0.3,10.9c3.6,5.8,13,6,17.4,0.4c2.1-2.7,2-8.7-0.3-11.7c-0.9-1.3-1.7-2.4-1.7-2.5s5.3-0.2,11.6-0.1c6.7,0,12.3-0.2,13.4-0.7c2.1-0.8,3.2-2.6,3.2-5.2c0-1.9-0.3-2.5-12.6-24.3l-7.6-13.6l3.4-13.7c1.9-7.5,8.3-32.3,14.1-55.1c5.9-22.8,12.3-47.7,14.2-55.4l3.4-13.9h9.1c10.4,0,12.5-0.6,13.7-4.4c0.6-1.8,0.6-3,0-4.8c-1.3-3.9-3.2-4.3-18.8-4.3h-13.5L212.8,29.6z M43.6,87.4c0,0.2-0.8,1.3-1.8,2.6l-1.9,2.3l-2.2-2.2L35.5,88l2.6-0.4C41.7,87,43.6,87,43.6,87.4z M65.8,87.4c0,0.2-0.8,1.3-1.8,2.6l-1.9,2.3l-2.2-2.2L57.7,88l2.6-0.4C63.9,87,65.8,87,65.8,87.4z M132.1,87.6c0.2,0.3-0.5,1.5-1.6,2.5l-2,2l-2.1-2l-2.1-2l2.6-0.4C130.8,87,131.7,87,132.1,87.6z M176.9,87.6c0,0.4-0.9,1.6-1.9,2.7l-1.9,2.1l-2.2-2.3l-2.3-2.4l2.6-0.3C176.2,87,176.9,87,176.9,87.6z M32.8,91.6l3.4,3.9l-3.8,3.8c-2.1,2.2-4,3.8-4.1,3.6c-0.1-0.2-1.1-3.6-2.2-7.7l-1.9-7.5h2.6C29.1,87.7,29.7,88.1,32.8,91.6z M56.2,93.1l2.2,2.4l-3.8,3.9l-3.8,3.8l-3.9-3.8l-3.9-3.8l3.8-3.9l3.8-3.9l1.8,1.5C53.3,90.1,55,91.8,56.2,93.1z M77.3,91.4l3.6,3.7l-4,4l-4,4L69,99.4l-3.9-3.8l3.8-3.9c2.2-2.2,4-3.9,4.2-3.9S75.2,89.4,77.3,91.4z M86.1,89.9L84,92.1l-2.2-2.2l-2.2-2.2H84h4.4L86.1,89.9z M99.5,91.4l3.7,3.7l-4,4l-4,4l-4-4l-4-4l3.6-3.7c2-2,4-3.7,4.4-3.7S97.5,89.4,99.5,91.4z M108.4,89.9l-2.2,2.2l-2.2-2.2l-2.2-2.2h4.4h4.4L108.4,89.9z M121.7,91.4l3.7,3.7l-4,4l-4,4l-3.9-3.9l-3.9-4l3.4-3.8c2-2.2,3.8-3.8,4.3-3.8C117.6,87.7,119.7,89.4,121.7,91.4z M143.9,91.4l3.6,3.7l-4,4l-4,4.1l-4-4.1l-4-4.1l3.6-3.7c2-2,3.9-3.6,4.3-3.6S141.9,89.4,143.9,91.4z M153,89.7c-2,2.1-3,2-5.3-0.6l-1.3-1.4h4.2h4.3L153,89.7z M163.8,89.4c1.3,0.9,3,2.8,4,4l1.8,2.3l-3.8,3.8l-3.8,3.8l-4.1-4.2l-4.1-4.1l3.6-3.6c2-2,3.8-3.6,4-3.7C161.5,87.8,162.6,88.5,163.8,89.4z M188.9,92c1.5,1.7,2.8,3.3,2.8,3.6c0,0.3-1.7,2.2-3.7,4.2l-3.7,3.6l-4-4l-4-4l3.8-3.9C184.4,87.2,184.5,87.2,188.9,92z M197.1,88.9c0,0.7-0.4,1.8-0.9,2.4c-0.7,1.1-1,1-3.2-1.2l-2.3-2.4h3.2C196.5,87.7,197.1,87.9,197.1,88.9z M87.8,102c2,2,3.6,3.8,3.6,4.2s-1.7,2.4-3.7,4.4l-3.7,3.6l-4-4l-4-4l3.8-3.9c2.2-2.2,4-3.9,4.2-3.9C84.1,98.5,85.9,100,87.8,102z M110,102c2,2,3.6,3.8,3.6,4.2s-1.7,2.4-3.7,4.4l-3.7,3.6l-3.7-3.6c-2-2-3.7-4-3.7-4.3c0-0.7,6.7-7.8,7.3-7.8C106.3,98.5,108.1,100,110,102z M132.7,102.4l3.8,3.9l-4,4l-4,4l-4-4l-4-4l3.8-3.9c2.2-2.2,4-3.9,4.2-3.9S130.5,100.2,132.7,102.4z M154.9,102.5l4,4l-3.8,3.7c-2.1,2.1-4,3.8-4.3,3.8c-0.3,0-2.2-1.7-4.2-3.7l-3.6-3.6l1.3-1.5c0.9-1.1,6-6.1,6.7-6.7C151,98.5,152.8,100.3,154.9,102.5z M177.2,102.5l4,4l-3.6,3.8c-2,2.1-3.9,3.8-4.3,3.8c-0.5,0-2.4-1.7-4.4-3.7l-3.6-3.7l4-4c2.2-2.2,4-4,4-4S175,100.3,177.2,102.5z M43.6,102.9l3.7,3.7l-3.9,3.9l-3.8,3.8l-3.8-3.8l-3.9-3.9l3.7-3.7c2-2,3.8-3.7,4-3.7C39.8,99.2,41.6,100.8,43.6,102.9z M65.8,102.7c1.9,1.8,3.4,3.4,3.4,3.7c0,0.3-1.7,2.2-3.7,4.2l-3.7,3.7l-3.8-3.9l-3.9-3.8l3.7-3.7c2-2,3.9-3.6,4.1-3.6C62.1,99.4,63.9,101,65.8,102.7z M193.3,104.6c-1.6,6.7-1.4,6.5-3.8,4.1l-2.1-2.2l3.3-3.4c1.8-1.8,3.4-3.2,3.5-3.2C194.3,100.2,193.9,102.2,193.3,104.6z M56.2,115.3l2.2,2.4l-3.8,3.9l-3.8,3.8l-3.9-3.8l-3.9-3.8l3.8-3.9l3.8-3.9l1.7,1.5C53.2,112.3,55,114,56.2,115.3z M76.9,113.8l3.8,3.8l-3.9,4l-3.9,3.9l-4-4l-4-4l3.7-3.7c2-2,3.9-3.7,4.2-3.7C73,109.9,74.9,111.6,76.9,113.8z M99.5,113.6l3.7,3.7l-4,4l-4,4l-4-4l-4-4l3.6-3.7c2-2,4-3.7,4.4-3.7S97.5,111.6,99.5,113.6z M121.7,113.6l3.7,3.7l-4,4l-4,4l-4-4l-4-4l3.6-3.8c2-2.1,3.9-3.8,4.3-3.8C117.7,109.9,119.7,111.6,121.7,113.6z M143.8,113.6l3.6,3.6l-1.4,2c-0.7,1-2.5,3-3.8,4.2l-2.4,2.3l-4.1-4.1l-4.1-4.1l3.6-3.6c2-2,4-3.8,4.3-3.8C139.9,110,141.9,111.5,143.8,113.6z M165.9,113.4c2,2,3.6,3.8,3.6,4.2s-1.6,2.3-3.6,4.2l-3.6,3.6l-3.2-2.8c-5.2-4.5-5.3-4.9-1.1-9.1c2-2,3.8-3.6,3.9-3.6C162.2,109.9,164,111.5,165.9,113.4z M188.9,114.2c2.3,2.5,1.5,5.6-2,8.8l-2.7,2.5l-3.7-3.5c-2-1.9-3.6-3.8-3.6-4.2s1.5-2.3,3.5-4.2l3.4-3.5l1.8,1.3C186.5,111.9,188.1,113.2,188.9,114.2z M34.5,119.3c-0.9,0.9-1.8,1.5-2,1.3c-0.1-0.1-0.7-2.2-1.3-4.6l-1-4.2l3,2.9l3,2.9L34.5,119.3z M65.6,132.6l-3.8,3.9l-4-4l-4-4l3.8-3.9l3.9-3.9l4,4l4,4L65.6,132.6z M91.3,128.4c0,0.4-1.6,2.4-3.6,4.4l-3.7,3.6l-4-4l-4-4l3.8-3.9l3.8-3.8l3.8,3.5C89.5,126.1,91.3,128.1,91.3,128.4z M110.4,124.6l3.8,3.9l-4,4l-4,4l-4-4l-4-4l3.8-3.9c2.2-2.2,4-3.9,4.2-3.9C106.4,120.7,108.3,122.4,110.4,124.6z M132.7,124.7l4,4l-3.8,3.7c-2.1,2.1-4,3.8-4.3,3.8c-0.3,0-2.2-1.8-4.4-3.8l-3.9-3.9l3.8-3.8c2.2-2,4-3.8,4.2-3.8C128.6,120.8,130.6,122.5,132.7,124.7z M155.3,132.5c-2,2-4,3.7-4.4,3.7c-0.4,0-2.4-1.7-4.4-3.7l-3.6-3.7l4-4l4-4l4,4l4,4L155.3,132.5z M177.6,132.5c-2,2-4,3.7-4.4,3.7s-2.4-1.7-4.4-3.7l-3.6-3.7l4-4l4-4l4,4l4,4L177.6,132.5z M43.5,124.9c1.9,1.8,3.4,3.4,3.4,3.7c0,0.3-1.6,2.2-3.6,4.1l-3.6,3.6l-2.1-1.5c-1.9-1.3-3.4-4.7-3.4-7.5c0-1.1,4.7-6.2,5.5-5.9C39.9,121.6,41.7,123.2,43.5,124.9z M54.6,136l3.8,3.9l-3.9,3.8l-3.9,3.8l-4-4l-4-4l3.6-3.7c2-2,3.8-3.7,4-3.7S52.4,133.9,54.6,136z M76.8,136l3.8,3.8l-3.8,3.9l-3.9,3.9l-4-4l-4-4l3.7-3.7c2-2,3.8-3.7,4-3.7S74.7,133.9,76.8,136z M99.1,136l3.8,3.8l-4,4l-3.9,3.9l-4-4l-4-4l3.6-3.7c2-2,3.9-3.7,4.2-3.7S97.1,133.8,99.1,136z M121.5,135.6c2,2,3.6,3.8,3.6,4.3c0,0.4-1.8,2.3-3.8,4.2l-3.8,3.5l-4-4l-4-4.1l3.6-3.6c2-2,4-3.6,4.4-3.7C117.6,132.2,119.5,133.7,121.5,135.6z M143.7,135.6c2,2,3.6,3.8,3.6,4.2c0,0.4-1.7,2.4-3.7,4.4l-3.7,3.6l-4-4l-4-4l3.8-3.9c2.2-2.2,4-3.9,4.2-3.9C140,132.1,141.7,133.7,143.7,135.6z M166,135.8c4.1,4.2,4.1,4.3-0.9,9.2l-3.1,3l-4-4l-4-4l3.8-3.9c2.2-2.2,4-3.9,4.2-3.9S164.1,133.8,166,135.8z M185.4,132.8c0.7,0.7-1.7,12.8-2.6,12.8c-0.7,0-4.6-3.4-5.3-4.8c-0.6-1.2-0.3-1.9,2.8-5C184.2,131.9,184.4,131.8,185.4,132.8z M44.6,153.7c-1.4,1.5-2.8,2.7-3,2.7c-0.7,0-3.4-12.2-3-12.9c0.3-0.4,2.2,1.1,4.5,3.4l4.1,4.1L44.6,153.7z M65.6,154.8l-3.8,3.9l-4-4l-4-4l3.8-3.9l3.9-3.9l4,4l4,4L65.6,154.8z M88,154.7c-2,2-3.9,3.6-4.1,3.6c-0.3-0.1-2.2-1.8-4.3-3.8l-3.8-3.6l3.9-3.9l4-4l4,4l4,4L88,154.7z M177.6,154.7c-2,2-4,3.7-4.4,3.7s-2.4-1.7-4.4-3.7l-3.6-3.7l4-4l4-4l4,4l4,4L177.6,154.7z M110.4,147.3l3.7,3.6l-3.8,4.1l-3.7,4.1l-3.9-3.8c-2.2-2.2-4-4.2-4-4.4c0-0.6,6.9-7.3,7.5-7.3C106.6,143.6,108.5,145.3,110.4,147.3z M133.1,147.2l3.6,3.6l-4,4.1l-3.9,4.2l-4-4l-4-4.1l3.6-3.7c2-2,4-3.7,4.4-3.7C129.2,143.6,131.1,145.2,133.1,147.2z M155.3,147.3l3.6,3.7l-3.6,3.7c-2,2-4,3.7-4.4,3.7c-0.4,0-2.4-1.7-4.4-3.7L143,151l3.6-3.7c2-2,4-3.7,4.4-3.7C151.4,143.6,153.3,145.3,155.3,147.3z M54.6,158.3c2.4,2.4,3.6,4.1,3.2,4.4c-0.7,0.5-10.3,0-13.5-0.7c-1.5-0.3-1.5-0.5,2-4c2-2,3.8-3.6,4-3.6S52.5,156.1,54.6,158.3z M76.9,158.3c2.1,2,3.8,3.8,3.8,4c0,2.6-12,3.2-14.5,0.7c-1.3-1.3-1.3-1.3,2.4-5c2-2,3.9-3.6,4.1-3.6C72.9,154.6,74.8,156.3,76.9,158.3z M99.1,158.3l4,4l-2.2,2.1c-1.8,1.8-2.6,2.1-5.7,2.1c-2.9-0.1-3.8-0.3-5.7-2c-1.2-1.1-2.2-2.2-2.2-2.5c0-0.5,6.7-7.3,7.4-7.5C95,154.4,96.9,156.2,99.1,158.3z M122.6,159.6l2.6,2.9l-3.2,3c-1.8,1.8-3.8,3-4.6,3c-0.9,0-2.8-1.3-4.7-3.2l-3.2-3.2l3.8-3.9C117.7,153.9,117.5,153.9,122.6,159.6z M144.1,158.3l3.8,3.9l-4,4l-4,4l-4-4l-4-4l3.8-3.9c2.2-2.2,4-3.9,4.2-3.9C140.1,154.4,141.9,156.1,144.1,158.3z M165.9,157.9c2,2,3.6,3.8,3.6,4.2s-1.7,2.4-3.7,4.4l-3.7,3.6l-4-4l-4-4l3.8-3.9c2.2-2.2,4-3.9,4.2-3.9C162.2,154.4,164,155.9,165.9,157.9z M179.2,161.7c-0.5,2.3-0.9,2.6-2.2,1.3c-0.6-0.6-0.5-1.1,0.7-2.4C179.4,158.7,179.8,159,179.2,161.7z M176.8,171.4c-0.3,1.2-0.6,2.2-0.6,2.2c0,0.1-7.6-0.5-8.7-0.7c-1.5-0.3-1.5-0.5,2-4l3.6-3.6l2.2,2.1C177.2,169.1,177.4,169.5,176.8,171.4z M107.6,166.8c0.9,1.1,0.2,1.3-1.6,0.6c-0.6-0.2-0.9-0.7-0.7-1C105.8,165.5,106.6,165.7,107.6,166.8z M130.8,167.5c1,0.9,1.7,1.8,1.5,2c-0.1,0.2-1.9,0.1-3.8-0.1L125,169l1.5-1.5C128.4,165.4,128.5,165.4,130.8,167.5z M154.7,168.9l3,3l-5.7-0.5c-3.2-0.2-5.9-0.5-6-0.7c-0.5-0.4,4.1-5,5-5C151.4,165.8,153.1,167.2,154.7,168.9z"/><path fill="#000000" d="M50.3,31.7C46.1,34.5,18.8,59.6,18.4,61c-0.7,2.9-0.4,4.4,2,7.5l2.4,3.1h35.4h35.3l-4.6-5.3c-2.6-2.8-10.2-11.4-17-19S58.7,32.9,57.6,32C55.1,30.2,52.6,30.1,50.3,31.7z"/></g></g></g>
</svg>